<?xml version="1.0" standalone="no"?>
<!DOCTYPE svg PUBLIC "-//W3C//DTD SVG 20010904//EN"
 "http://www.w3.org/TR/2001/REC-SVG-20010904/DTD/svg10.dtd">
<svg version="1.0" xmlns="http://www.w3.org/2000/svg"
 width="142.000000pt" height="164.000000pt" viewBox="0 0 142.000000 164.000000"
 preserveAspectRatio="xMidYMid meet">

<g transform="translate(0.000000,164.000000) scale(0.100000,-0.100000)"
fill="#000000" stroke="none">
<path d="M1090 1625 c-311 -89 -697 -502 -909 -975 -70 -154 -111 -285 -101
-319 7 -25 3 -38 -21 -75 -16 -26 -31 -58 -35 -74 -3 -15 -8 -35 -11 -44 -12
-44 124 3 197 69 60 54 87 97 133 218 157 409 462 801 729 936 32 16 60 29 63
29 13 0 1 -33 -49 -137 -57 -118 -120 -220 -193 -315 l-43 -57 27 -25 c27 -25
27 -26 6 -26 -12 0 -24 -4 -28 -9 -3 -5 -18 -12 -34 -16 -26 -6 -30 -11 -36
-58 -4 -29 -11 -56 -15 -62 -4 -5 -10 -27 -12 -48 -6 -53 14 -62 111 -51 136
14 177 12 204 -14 l25 -24 7 31 c10 48 -4 114 -41 187 -19 37 -34 69 -34 71 0
2 17 0 39 -3 l38 -6 72 107 c73 109 155 268 186 360 41 123 28 212 -40 280
-61 61 -139 78 -235 50z m-100 -770 l25 -14 -37 -1 c-20 0 -45 -3 -55 -7 -12
-4 -10 0 7 15 30 25 28 25 60 7z"/>
</g>
</svg>
